<?xml version="1.0" encoding="utf-8"?>
<!-- Generator: Adobe Illustrator 16.0.0, SVG Export Plug-In . SVG Version: 6.00 Build 0)  -->
<!DOCTYPE svg PUBLIC "-//W3C//DTD SVG 1.1//EN" "http://www.w3.org/Graphics/SVG/1.1/DTD/svg11.dtd">
<svg version="1.1" id="Layer_1" xmlns="http://www.w3.org/2000/svg" xmlns:xlink="http://www.w3.org/1999/xlink" x="0px" y="0px"
	 width="200px" height="200px" viewBox="0 0 200 200" enable-background="new 0 0 200 200" xml:space="preserve">
<g>
	<ellipse cx="19.536" cy="59.896" rx="18.333" ry="18.091"/>
	<path d="M195.6,137.618l-38.216-34.863c-3.259-2.973-8.101-3.404-11.832-1.054l-38.369,24.154c-1.735,1.092-3.965,0.996-5.6-0.241
		L45.306,83.032c-6.721-5.078-16.286-3.748-21.365,2.971c-2.077,2.749-3.049,5.973-3.051,9.17c-0.001,0.01,0.03,0.018,0.03,0.027
		v55.496c0,4.142,3.358,7.5,7.5,7.5h42.383c3.611,0,6.537-2.968,6.537-6.578c0-3.609-2.926-6.579-6.537-6.579H36.377
		c-1.271,0-2.3-1.029-2.3-2.3v-30.068l51.074,38.658c2.038,1.538,9.962,4.881,18.016,0.229
		c10.335-5.974,37.817-23.668,44.855-28.211c0.981-0.634,2.261-0.525,3.124,0.262l31.237,28.498
		c4.001,3.651,10.202,3.362,13.854-0.637C199.886,147.471,199.601,141.269,195.6,137.618z"/>
</g>
</svg>
