<?xml version="1.0" encoding="iso-8859-1"?>
<!-- Generator: Adobe Illustrator 17.1.0, SVG Export Plug-In . SVG Version: 6.00 Build 0)  -->
<!DOCTYPE svg PUBLIC "-//W3C//DTD SVG 1.1//EN" "http://www.w3.org/Graphics/SVG/1.1/DTD/svg11.dtd">
<svg version="1.1" id="Capa_1" xmlns="http://www.w3.org/2000/svg" xmlns:xlink="http://www.w3.org/1999/xlink" x="0px" y="0px"
	 viewBox="0 0 64 64" style="enable-background:new 0 0 64 64;" xml:space="preserve">
<g>
	<circle cx="28.26" cy="9.866" r="5.851"/>
	<path d="M18.906,59.509c0.392,0.136,0.792,0.2,1.185,0.2c1.501,0,2.905-0.94,3.425-2.44l4.632-13.379
		c0.05-0.143,0.085-0.29,0.116-0.438l1.756,1.708L36.7,57.78c0.65,1.229,1.907,1.929,3.207,1.929c0.571,0,1.151-0.137,1.692-0.422
		c1.769-0.938,2.442-3.129,1.506-4.898l-6.946-13.122c-0.178-0.334-0.405-0.639-0.676-0.902l-7.568-7.362l1.135-4.618l8.535,2.267
		c0.233,0.062,0.467,0.091,0.698,0.091c1.061,0,2.055-0.624,2.493-1.638l1.772-4.092l3.758,0.629
		c0.75,0.872,1.849,1.437,3.091,1.437c2.262,0,4.096-1.834,4.096-4.097c0-2.261-1.834-4.093-4.096-4.093
		c-1.162,0-2.205,0.488-2.95,1.264l-1.673-0.279l0.711-1.642c1.326-0.726,2.232-2.082,2.232-3.664c0-2.261-1.834-4.093-4.096-4.093
		c-2.263,0-4.096,1.832-4.096,4.093c0,0.819,0.246,1.579,0.661,2.22l-0.937,2.161l-7.8-1.306c-0.224-0.038-0.444-0.037-0.661-0.021
		l-3.271-0.361c-0.549-0.061-1.402,0.077-1.879,0.356c-6.264,3.679-6.749,12.51-6.743,15.255c-0.131,0.554-0.15,1.143,0.002,1.732
		l2.043,7.947l-4.274,12.348C16.012,56.79,17.015,58.854,18.906,59.509z M30.383,22.956c0.059,0.014,0.111,0.037,0.171,0.047
		l6.472,1.084l-0.308,0.709l-6.371-1.691L30.383,22.956z"/>
</g>
</svg>
