<?xml version="1.0" encoding="utf-8"?>
<!-- Generator: Adobe Illustrator 16.0.0, SVG Export Plug-In . SVG Version: 6.00 Build 0)  -->
<!DOCTYPE svg PUBLIC "-//W3C//DTD SVG 1.1//EN" "http://www.w3.org/Graphics/SVG/1.1/DTD/svg11.dtd">
<svg version="1.1" id="Layer_1" xmlns="http://www.w3.org/2000/svg" xmlns:xlink="http://www.w3.org/1999/xlink" x="0px" y="0px"
	 width="200px" height="200px" viewBox="0 0 200 200" enable-background="new 0 0 200 200" xml:space="preserve">
<g>
	<g>
		<g>
			<ellipse cx="89.922" cy="39.751" rx="14.647" ry="14.455"/>
		</g>
		<g>
			<path d="M125.004,93.633c-0.249-2.868-2.783-4.986-5.647-4.752c-1.177,0.097-26.572,1.913-35.522-21.031
				c0.589-3.762-0.576-7.74-3.504-10.605c-1.67-1.635-3.286-2.336-5.815-3.159c-19.101-6.223-32.901,0.875-41.084,7.728
				c-8.889,7.441-13.106,16.442-13.281,16.821c-1.208,2.619-0.065,5.723,2.554,6.931c0.708,0.327,1.453,0.482,2.185,0.481
				c1.974,0,3.863-1.124,4.745-3.034c0.033-0.072,3.503-7.331,10.502-13.19c5.62-4.705,11.883-7.198,18.712-7.498
				c-12.038,15.528-17.361,38.384-13.642,60.153c0.084,0.495,0.208,0.974,0.348,1.444c0.188,0.899,0.529,1.826,1.078,2.763
				c3.44,5.87,13.21,27.55-5.488,60.06c-2.157,3.75-0.865,8.539,2.885,10.696c1.231,0.708,2.574,1.045,3.899,1.045
				c2.711-0.001,5.349-1.41,6.798-3.93c12.369-21.505,14.278-39.636,12.708-52.98c4.845,8.311,8.626,22.938,1.031,46.688
				c-1.318,4.121,0.955,8.53,5.076,9.848c0.793,0.254,1.597,0.375,2.388,0.374c3.316,0,6.396-2.122,7.46-5.449
				c6.85-21.419,6.748-39.972-0.3-55.144c-4.34-9.342-10.13-14.751-13.693-17.413c-2.044-8.202,0.692-32.017,7.912-42.136
				c5.922,10.012,14.543,15.173,21.769,17.823c7.56,2.773,14.647,3.217,18.411,3.217c1.654,0,2.667-0.086,2.793-0.098
				C123.145,99.026,125.253,96.5,125.004,93.633z"/>
		</g>
	</g>
	<g>
		<path d="M157.898,28.702V6.624c0-2.438-1.961-4.413-4.398-4.413s-4.398,1.976-4.398,4.413v22.078h-4.736
			c-8.6,0-15.571,6.972-15.571,15.571v80.952c0,8.6,6.972,15.571,15.571,15.571h18.27c8.6,0,15.571-6.972,15.571-15.571V44.273
			c0-8.6-6.972-15.571-15.571-15.571H157.898z"/>
	</g>
	<g>
		<path d="M120.438,73.645c-0.963,0-1.881-0.561-2.292-1.499l-7.553-17.264c-0.553-1.265,0.023-2.739,1.289-3.292
			c1.265-0.554,2.739,0.023,3.292,1.288l7.553,17.264c0.553,1.265-0.023,2.739-1.289,3.292
			C121.113,73.576,120.773,73.645,120.438,73.645z"/>
	</g>
	<g>
		<path d="M114.422,83.453c-0.317,0-0.639-0.061-0.95-0.188l-16.095-6.617c-1.277-0.525-1.887-1.986-1.361-3.263
			c0.524-1.278,1.987-1.888,3.263-1.362l16.095,6.617c1.277,0.525,1.887,1.986,1.361,3.263
			C116.338,82.869,115.405,83.453,114.422,83.453z"/>
	</g>
	<g>
		<path d="M112.883,132.902c-0.334,0-0.674-0.067-1-0.211c-1.265-0.553-1.842-2.027-1.289-3.292l7.553-17.264
			c0.553-1.265,2.026-1.846,3.292-1.288c1.265,0.553,1.842,2.027,1.289,3.292l-7.553,17.264
			C114.764,132.342,113.846,132.902,112.883,132.902z"/>
	</g>
	<g>
		<path d="M98.328,112.447c-1.031,0-1.997-0.643-2.358-1.671c-0.458-1.303,0.226-2.729,1.528-3.188l14.556-5.124
			c1.3-0.459,2.73,0.225,3.188,1.528c0.458,1.303-0.226,2.729-1.528,3.188l-14.556,5.124
			C98.884,112.401,98.604,112.447,98.328,112.447z"/>
	</g>
</g>
</svg>
