<?xml version="1.0" encoding="utf-8"?>
<!-- Generator: Adobe Illustrator 16.0.4, SVG Export Plug-In . SVG Version: 6.00 Build 0)  -->
<!DOCTYPE svg PUBLIC "-//W3C//DTD SVG 1.1//EN" "http://www.w3.org/Graphics/SVG/1.1/DTD/svg11.dtd">
<svg version="1.1" id="Capa_1" xmlns="http://www.w3.org/2000/svg" xmlns:xlink="http://www.w3.org/1999/xlink" x="0px" y="0px"
	 width="52.406px" height="42.027px" viewBox="0 0 52.406 42.027" enable-background="new 0 0 52.406 42.027" xml:space="preserve">
<g>
	<circle fill="#262626" cx="26.206" cy="3.933" r="3.933"/>
	<rect y="21.654" fill="#262626" width="3.798" height="12.603"/>
	<path fill="#262626" d="M44.178,25.582h-0.365c-2.047-3.236-10.397-16.449-10.4-16.449h-7.206h-7.72c0,0-7.391,11.295-9.844,15.04
		l-0.178-3.77H4.67v15.102h3.795v-6.964h6.47v11.245c0,1.24,1.005,2.241,2.244,2.241c1.235,0,2.24-1.001,2.24-2.241l-0.004-11.245
		h13.056v11.245c0,1.24,1.006,2.241,2.239,2.241c1.241,0,2.243-1.001,2.243-2.241V28.541h6.982v6.465h3.797V19.905h-3.797
		L44.178,25.582z M20.959,21.605l-6.023,1.511v2.468h-2.583v-0.001c2.276-3.451,8.632-13.123,8.632-13.123L20.959,21.605z
		 M23.229,25.582l2.975-1.247l2.747,1.247H23.229z M36.953,25.581v-2.469l-6.02-1.509l-0.018-9.146V12.45
		c0.002,0,6.9,9.787,9.26,13.131H36.953z"/>
	<rect x="48.609" y="21.154" fill="#262626" width="3.797" height="12.602"/>
</g>
</svg>
