<?xml version="1.0" encoding="iso-8859-1"?>
<!-- Generator: Adobe Illustrator 16.0.0, SVG Export Plug-In . SVG Version: 6.00 Build 0)  -->
<!DOCTYPE svg PUBLIC "-//W3C//DTD SVG 1.1//EN" "http://www.w3.org/Graphics/SVG/1.1/DTD/svg11.dtd">
<svg version="1.1" id="Layer_1" xmlns="http://www.w3.org/2000/svg" xmlns:xlink="http://www.w3.org/1999/xlink" x="0px" y="0px"
	 width="512px" height="512px" viewBox="0 0 512 512" style="enable-background:new 0 0 512 512;" xml:space="preserve">
<path d="M397.696,223.134c-3.818,0-7.572,0.277-11.26,0.765l-30.46-95.577c-1.998-6.27-7.896-10.499-14.429-10.445
	c-19.614,0.18-41.654,0.255-45.21,0.078c-7.929-0.821-15.158,4.726-16.361,12.678c-1.239,8.191,4.396,15.836,12.587,17.075
	c1.227,0.185,3.414,0.516,38.188,0.26l6.344,19.906c-0.123,0.171-0.256,0.33-0.372,0.507c-0.189,0.286-19.172,28.929-45.111,57.042
	c-17.069,18.5-33.267,32.541-47.779,41.597l-48.116-103.865h1.564c8.177,0,14.806-6.629,14.806-14.806
	c0-8.178-6.629-14.806-14.806-14.806h-48.355c-8.177,0-14.806,6.628-14.806,14.806c0,8.177,6.629,14.806,14.806,14.806h3.615
	l-25.051,61c-4.299-0.668-8.701-1.02-13.186-1.02c-47.143,0-85.496,38.354-85.496,85.496c0,47.144,38.354,85.497,85.496,85.497
	c35.231,0,65.539-21.428,78.607-51.933l61.407,5.439c19.522,1.089,35.676-15.414,36.677-34.804l21.853-14.537
	c-0.411,3.392-0.646,6.836-0.646,10.337c0,47.144,38.353,85.497,85.495,85.497s85.496-38.354,85.496-85.497
	C483.192,261.487,444.839,223.134,397.696,223.134z M160.496,339.322c-9.952,14.938-26.935,24.805-46.192,24.805
	c-30.601,0-55.496-24.896-55.496-55.497c0-30.601,24.896-55.496,55.496-55.496c0.427,0,0.847,0.022,1.272,0.032l-14.279,34.77
	c-8.243,4.2-13.832,12.317-13.832,21.646c0,11.083,7.885,20.46,18.744,23.585c3.43,1.121,7.595,1.966,12.645,2.467 M135.038,284.747
	l9.332-22.726c7.814,5.059,14.271,12.029,18.727,20.24L135.038,284.747z M194.657,279.466
	c-7.064-19.399-20.956-35.539-38.766-45.498l18.593-45.277l41.189,88.913L194.657,279.466z M247.633,331.959
	c-11.626,0-21.053-9.426-21.053-21.052c0-11.627,9.427-21.052,21.053-21.052s21.052,9.425,21.052,21.052
	C268.685,322.533,259.259,331.959,247.633,331.959z M279.659,284.339c-1.2-1.146-2.478-2.211-3.825-3.187
	c12.217-9.489,24.928-21.382,38.1-35.686c14.106-15.316,26.095-30.509,34.549-41.858l9.19,28.834L279.659,284.339z M397.696,364.127
	c-30.601,0-55.495-24.896-55.495-55.497c0-19.338,9.947-36.388,24.987-46.326l16.216,50.881c2.033,6.379,7.933,10.449,14.288,10.449
	c1.509,0,3.044-0.229,4.559-0.712c7.894-2.516,12.253-10.953,9.737-18.847l-16.221-50.893c0.643-0.022,1.281-0.049,1.929-0.049
	c30.601,0,55.496,24.896,55.496,55.496C453.192,339.231,428.297,364.127,397.696,364.127z"/>
</svg>
