<?xml version="1.0" encoding="utf-8"?>
<!-- Generator: Adobe Illustrator 16.0.0, SVG Export Plug-In . SVG Version: 6.00 Build 0)  -->
<!DOCTYPE svg PUBLIC "-//W3C//DTD SVG 1.1//EN" "http://www.w3.org/Graphics/SVG/1.1/DTD/svg11.dtd">
<svg version="1.1" id="Layer_1" xmlns="http://www.w3.org/2000/svg" xmlns:xlink="http://www.w3.org/1999/xlink" x="0px" y="0px"
	 width="48px" height="48px" viewBox="0 0 48 48" enable-background="new 0 0 48 48" xml:space="preserve">
<path d="M33.39,21.799c-0.475-0.761-1.307-1.232-2.204-1.232h-6.357l6.707-16.032c0.335-0.802,0.248-1.717-0.234-2.44
	c-0.481-0.723-1.292-1.158-2.161-1.158h-8.444c-1.15,0-2.163,0.761-2.49,1.863l-7.283,24.565c-0.233,0.786-0.082,1.627,0.409,2.284
	c0.49,0.657,1.261,1.035,2.081,1.035h6.807L19.032,44.79c-0.083,0.988,0.548,1.899,1.503,2.164c0.955,0.264,1.962-0.186,2.399-1.076
	l10.582-21.559C33.912,23.515,33.864,22.56,33.39,21.799z"/>
</svg>
