<?xml version="1.0" encoding="iso-8859-1"?>
<!-- Generator: Adobe Illustrator 17.1.0, SVG Export Plug-In . SVG Version: 6.00 Build 0)  -->
<!DOCTYPE svg PUBLIC "-//W3C//DTD SVG 1.1//EN" "http://www.w3.org/Graphics/SVG/1.1/DTD/svg11.dtd">
<svg version="1.1" id="Capa_1" xmlns="http://www.w3.org/2000/svg" xmlns:xlink="http://www.w3.org/1999/xlink" x="0px" y="0px"
	 viewBox="0 0 64 64" style="enable-background:new 0 0 64 64;" xml:space="preserve">
<g>
	<path d="M11.631,59.264c3.911,0,7.29-2.286,8.897-5.586c0.602,0.264,1.234,0.425,1.813,0.425h17.56
		c1.291,0,2.476-0.853,2.952-2.029c1.183,4.144,4.996,7.19,9.515,7.19c5.46,0,9.902-4.442,9.902-9.902
		c0-4.105-2.513-7.635-6.08-9.133c0.247-0.422,0.393-0.875,0.393-1.315c0-1.062-0.599-2.727-1.363-3.789l-3.859-5.359
		c-0.772-1.073-2.378-2.182-3.655-2.524l-3.129-0.839c-0.438-0.118-0.896-0.18-1.321-0.18c-0.226,0-0.433,0.021-0.627,0.053
		c-0.296-0.32-0.692-0.552-1.157-0.624l-8.149-1.25l-3.069-6.148c-0.007-0.014-0.017-0.024-0.024-0.038
		c-0.103-0.478-0.505-0.886-0.993-0.943L23.7,16.616c-0.548-0.065-1.102,0.317-1.238,0.853l-4.067,16.007
		c-0.001,0.006,0,0.012-0.001,0.018c-0.257-0.218-0.475-0.465-0.61-0.725l-0.697-1.348c-0.653-1.263-2.277-2.252-3.699-2.252H5.836
		c-0.352,0-1.426,0-1.624,0.819c-0.198,0.819,0.757,1.309,1.07,1.471L21.2,39.63c0.686,0.352,1.342,1.235,1.577,2.049l-0.502,1.163
		c-0.065-0.017-0.121-0.016-0.191-0.046l-9.293-3.965c-0.481-0.204-0.906-0.309-1.268-0.309c-0.612,0-0.904,0.305-1.024,0.487
		c-0.071,0.108-0.148,0.296-0.156,0.544c-4.853,0.635-8.614,4.786-8.614,9.808C1.729,54.822,6.171,59.264,11.631,59.264z
		 M30.214,27.122c0.291,0.578,0.844,0.979,1.482,1.077l9.168,1.406c0.103,0.016,0.205,0.023,0.307,0.023
		c0.342,0,0.668-0.092,0.956-0.25c0.242,0.222,0.514,0.426,0.801,0.598l1.654,0.993c0.33,0.198,0.448,0.404,0.45,0.531
		c0.001,0.129-0.117,0.279-0.325,0.411c-0.255,0.161-0.467,0.253-0.625,0.296c-0.22-0.939-1.463-1.544-2.692-1.671l-11.085-1.147
		c-1.088-0.114-2.319,0.359-3.166,1.131l1.621-6.283L30.214,27.122z"/>
	<circle cx="27.724" cy="10.199" r="4.622"/>
</g>
</svg>
