<?xml version="1.0" encoding="iso-8859-1"?>
<!-- Generator: Adobe Illustrator 17.1.0, SVG Export Plug-In . SVG Version: 6.00 Build 0)  -->
<!DOCTYPE svg PUBLIC "-//W3C//DTD SVG 1.1//EN" "http://www.w3.org/Graphics/SVG/1.1/DTD/svg11.dtd">
<svg version="1.1" id="Capa_1" xmlns="http://www.w3.org/2000/svg" xmlns:xlink="http://www.w3.org/1999/xlink" x="0px" y="0px"
	 viewBox="0 0 64 64" style="enable-background:new 0 0 64 64;" xml:space="preserve">
<g>
	<path style="fill:#1D1D1B;" d="M23.431,14.104c1.643-0.747,2.378-2.685,1.631-4.331c-0.745-1.642-2.69-2.372-4.335-1.625
		c-1.644,0.746-2.374,2.693-1.629,4.334C19.847,14.127,21.787,14.851,23.431,14.104z"/>
	<path style="fill:#1D1D1B;" d="M16.902,16.308l-3.433,9.177c-0.207,0.624-0.176,1.317,0.115,1.959
		c0.424,0.933,1.318,1.519,2.275,1.597l8.039,0.653l3.047,6.712c0.431,0.946,1.551,1.375,2.5,0.943
		c0.949-0.432,1.367-1.554,0.936-2.504l-3.809-8.387c0,0-0.377-1.439-2.232-1.478l-4.588-0.269l2.197-5.769l3.312,2.153
		c0.584,0.383,1.15,0.385,1.579,0.18l5.757-2.614c1.785-0.811,0.727-3.141-1.057-2.331L26.572,18.6l-5.6-3.644
		c0,0-1.217-0.838-2.535-0.239C18.438,14.717,17.278,15.071,16.902,16.308z"/>
	<path style="fill:#1D1D1B;" d="M52.057,26.077l-0.273,1.573c-0.222,1.271-1.396,2.624-2.624,3.021l-0.388,0.125
		c0.318-1.73,0.134-3.571-0.65-5.295c-2.039-4.494-7.33-6.47-11.811-4.436c-4.484,2.037-6.477,7.322-4.438,11.815
		c1.785,3.928,6.053,5.934,10.095,5.016l-0.082,0.148c-0.624,1.129-2.177,2.01-3.466,1.966l-1.871-0.065
		c-1.29-0.043-3.191,0.523-4.246,1.267l-2.34,1.648c-1.057,0.743-2.957,1.321-4.247,1.292l-1.255-0.029
		c1.33-2.389,1.557-5.35,0.339-8.032c-2.041-4.492-7.328-6.471-11.819-4.432c-4.475,2.033-6.47,7.321-4.431,11.81
		c1.743,3.839,5.865,5.834,9.821,5.066l-0.138,0.215c-0.698,1.086-2.309,1.924-3.598,1.874l-3.429-0.135
		c-1.289-0.052-2.512,0.938-2.729,2.211l-0.274,1.604c-0.059,0.342-0.037,0.639,0.042,0.889c-0.045,0.186-0.077,0.371-0.077,0.557v1
		c0,1.104,0.896,2,2,2h48.202c1.104,0,1.999-0.896,1.998-2l-0.013-17.517c0-0.291-0.062-0.546-0.169-0.762
		c0.146-0.398,0.215-0.82,0.167-1.238l-0.489-4.235c-0.148-1.281-1.021-3.048-1.949-3.945l-3.778-3.655
		C53.21,24.501,52.277,24.805,52.057,26.077z"/>
</g>
</svg>
