<?xml version="1.0" encoding="iso-8859-1"?>
<!-- Generator: Adobe Illustrator 16.0.0, SVG Export Plug-In . SVG Version: 6.00 Build 0)  -->
<!DOCTYPE svg PUBLIC "-//W3C//DTD SVG 1.1//EN" "http://www.w3.org/Graphics/SVG/1.1/DTD/svg11.dtd">
<svg version="1.1" xmlns="http://www.w3.org/2000/svg" xmlns:xlink="http://www.w3.org/1999/xlink" x="0px" y="0px" width="512px"
	 height="512px" viewBox="0 0 512 512" style="enable-background:new 0 0 512 512;" xml:space="preserve">
<g id="Guides_For_Artboard">
</g>
<g id="_x30_">
</g>
<g id="_x31_">
</g>
<g id="_x32_">
</g>
<g id="_x33_">
</g>
<g id="_x34_">
</g>
<g id="_x35_">
</g>
<g id="_x36_">
</g>
<g id="_x37_">
</g>
<g id="_x38_">
</g>
<g id="_x39_">
</g>
<g id="_x31_0">
</g>
<g id="_x31_1">
</g>
<g id="_x31_2">
</g>
<g id="_x31_3">
</g>
<g id="_x31_4">
</g>
<g id="_x31_5">
</g>
<g id="_x31_6">
</g>
<g id="_x31_7">
</g>
<g id="_x31_8">
</g>
<g id="_x31_9">
</g>
<g id="_x32_0">
</g>
<g id="_x32_1">
</g>
<g id="_x32_2">
</g>
<g id="_x32_3">
</g>
<g id="_x32_4">
</g>
<g id="_x32_5">
</g>
<g id="_x32_6">
</g>
<g id="_x32_7">
</g>
<g id="_x32_8">
</g>
<g id="_x32_9">
</g>
<g id="_x33_0">
</g>
<g id="_x33_1">
</g>
<g id="_x33_2">
</g>
<g id="_x33_3">
</g>
<g id="_x33_4">
</g>
<g id="_x33_5">
</g>
<g id="_x33_6">
	<g>
		<path d="M163.648,118.813h150.511c3.955,0,7.161-3.206,7.161-7.161s-3.206-7.161-7.161-7.161H163.648
			c-3.955,0-7.161,3.206-7.161,7.161S159.693,118.813,163.648,118.813z"/>
		<path d="M29.038,188.829h150.511c3.955,0,7.161-3.206,7.161-7.161s-3.206-7.16-7.161-7.16H29.038c-3.955,0-7.161,3.205-7.161,7.16
			S25.083,188.829,29.038,188.829z"/>
		<path d="M69.443,262.507c0,3.955,3.206,7.161,7.161,7.161h150.511c3.955,0,7.161-3.206,7.161-7.161s-3.206-7.161-7.161-7.161
			H76.604C72.649,255.346,69.443,258.552,69.443,262.507z"/>
		<path d="M155.581,345.732H20.346c-3.955,0-7.161,3.205-7.161,7.16s3.206,7.161,7.161,7.161h135.235
			c3.955,0,7.161-3.206,7.161-7.161S159.536,345.732,155.581,345.732z"/>
		<path d="M398.913,163.71c21.6,0,39.112-17.513,39.112-39.114c0-21.601-17.512-39.113-39.112-39.113
			c-21.605,0-39.118,17.513-39.118,39.113C359.795,146.197,377.308,163.71,398.913,163.71z"/>
		<path d="M463.251,152.447c-22.459,31.459-52.533,35.102-84.895,15.89c-2.203-1.306-11.976-6.691-14.139-7.977
			c-52.062-30.906-104.061-18.786-138.935,30.05c-14.819,20.771,19.455,40.459,34.108,19.93
			c18.018-25.232,40.929-32.533,65.987-24.541c-12.831,22.27-24.047,44.405-39.876,75.853
			c-15.831,31.448-50.786,56.561-84.373,36.92c-24.235-14.165-46.09,20.651-21.928,34.773
			c45.854,26.798,99.619,10.342,127.066-24.494c0.953,0.509,1.958,0.968,3.061,1.354c22.423,7.812,51.816,28.611,60.77,35.982
			s24.336,44.921,33.47,63.789c11.082,22.892,46.871,6.218,35.748-16.772c-10.354-21.407-27.736-64.13-41.293-74.938
			c-10.874-8.669-31.988-24.802-49.893-33.956c12.114-23.465,24.727-46.679,38.008-69.491
			c42.327,12.969,82.559-2.308,111.214-42.446C512.182,151.604,477.915,131.916,463.251,152.447z"/>
	</g>
</g>
<g id="_x33_7">
</g>
<g id="_x33_8">
</g>
<g id="_x33_9">
</g>
<g id="_x34_0">
</g>
<g id="_x34_1">
</g>
<g id="_x34_2">
</g>
<g id="_x34_3">
</g>
<g id="_x34_4">
</g>
<g id="_x34_5">
</g>
<g id="_x34_6">
</g>
<g id="_x34_7">
</g>
<g id="_x34_8">
</g>
<g id="_x34_9">
</g>
<g id="_x35_0">
</g>
<g id="_x35_1">
</g>
<g id="_x35_2">
</g>
<g id="_x35_3">
</g>
<g id="_x35_4">
</g>
<g id="_x35_5">
</g>
<g id="_x35_6">
</g>
<g id="_x35_7">
</g>
<g id="_x35_8">
</g>
<g id="_x35_9">
</g>
<g id="_x36_0">
</g>
<g id="_x36_1">
</g>
<g id="_x36_2">
</g>
<g id="_x36_3">
</g>
<g id="_x36_4">
</g>
<g id="_x36_5">
</g>
<g id="_x36_6">
</g>
<g id="_x36_7">
</g>
<g id="_x36_8">
</g>
<g id="_x36_9">
</g>
<g id="_x37_0">
</g>
</svg>
