<?xml version="1.0" encoding="utf-8"?>
<!-- Generator: Adobe Illustrator 17.1.0, SVG Export Plug-In . SVG Version: 6.00 Build 0)  -->
<!DOCTYPE svg PUBLIC "-//W3C//DTD SVG 1.1//EN" "http://www.w3.org/Graphics/SVG/1.1/DTD/svg11.dtd">
<svg version="1.1" id="Capa_1" xmlns="http://www.w3.org/2000/svg" xmlns:xlink="http://www.w3.org/1999/xlink" x="0px" y="0px"
	 width="500px" height="500px" viewBox="0 0 500 500" enable-background="new 0 0 500 500" xml:space="preserve">
<path d="M408.5,87.4c-28.3-14.5-57.4-26.7-87.2-37.5c-4.2-8.8-19.5-9-27.6-8c-14.8,2-29.9,4-44.7,4.3c-14.8-0.3-29.9-2.3-44.7-4.3
	c-8-1.1-23.4-0.8-27.6,8c-29.9,10.9-58.9,23-87.2,37.5c-6.8,3.5-82.9,45-80.5,49c11.3,18.8,56.6,103.1,62.2,103.1
	c7.9,0,21.3-14.5,28.6-11.9c0.4,16.8,1.1,211.4,1.1,222.6c0,7.1,83.1,8.3,148,8.3c65,0,148-1.2,148-8.3
	c0.1-11.3,0.7-205.8,1.1-222.6c7.3-2.6,20.7,11.9,28.6,11.9c5.6,0,50.9-84.3,62.2-103.1C491.3,132.5,415.3,90.9,408.5,87.4z
	 M144.7,436.2h-24v-31.5h24V436.2z M225.1,247.2c0,0.8-0.7,1.5-1.5,1.5h-23.8c-0.8,0-1.5-0.7-1.5-1.5v-59.2c0-1.2-1.4-2-2.4-1.2
	c-3.5,2.5-6.9,4.6-10.2,6.2c-3.6,1.8-8.1,3.6-13.3,5.3c-1,0.3-2-0.4-2-1.5v-18.6c0-0.7,0.4-1.2,1.1-1.5c8.5-2.8,15.2-6.2,20-10.2
	c4.8-3.9,8.5-8.7,11.3-14.3c0.3-0.5,0.8-0.9,1.4-0.9h19.5c0.8,0,1.5,0.7,1.5,1.5V247.2z M314.3,247.2c0,0.8-0.7,1.5-1.5,1.5h-23.8
	c-0.8,0-1.5-0.7-1.5-1.5v-59.2c0-1.2-1.4-2-2.4-1.2c-3.5,2.5-6.9,4.6-10.2,6.2c-3.6,1.8-8.1,3.6-13.3,5.3c-1,0.3-2-0.4-2-1.5v-18.6
	c0-0.7,0.4-1.2,1.1-1.5c8.5-2.8,15.2-6.2,20-10.2c4.8-3.9,8.5-8.7,11.3-14.3c0.3-0.5,0.8-0.9,1.4-0.9h19.5c0.8,0,1.5,0.7,1.5,1.5
	V247.2z"/>
</svg>
