<?xml version="1.0" encoding="iso-8859-1"?>
<!-- Generator: Adobe Illustrator 16.0.4, SVG Export Plug-In . SVG Version: 6.00 Build 0)  -->
<!DOCTYPE svg PUBLIC "-//W3C//DTD SVG 1.1//EN" "http://www.w3.org/Graphics/SVG/1.1/DTD/svg11.dtd">
<svg version="1.1" id="Layer_1" xmlns="http://www.w3.org/2000/svg" xmlns:xlink="http://www.w3.org/1999/xlink" x="0px" y="0px"
	 width="34.042px" height="34.042px" viewBox="-2.042 -2.042 34.042 34.042"
	 style="enable-background:new -2.042 -2.042 34.042 34.042;" xml:space="preserve">
<path d="M28.43,9.632c0.438-1.48,1.816-3.787-1.403-7.639c-3.222-3.854-10.914-1.851-7.853,3.702
	c0.506-3.938,4.119-3.55,6.138-1.127c0.758,1.012,0.19,2.641,0.19,2.641s-3.668-0.841-3.803,3.903
	c-0.054,1.021-1.341,2.568-1.449,2.645c-2.285,1.601-8.079-0.322-13.439,0.059c-4.776,0.051-6.986,2.719-5.996,5.945
	c0.619,0.288,0.924-2.422,1.245-2.286c0.322,0.135-0.559,1.651-0.381,2.286c0.178,0.636,0.838,2.634,0.584,3.455
	C2.009,24.038,0,26.004,0,27.029s0.146,3.522,0.146,3.522S-0.008,32,0.298,32c0.306,0,1.963-0.055,2.358-0.055
	c0.395,0-0.198-1.313-1.011-1.396c0-0.312,0.187-3.389,0.187-3.389l2.387-2.872c0,0,0.275,2.815,0.656,3.375
	c0.382,0.56,1.708,3.094,1.708,3.094S6.5,31.82,6.75,31.82s1.625,0.021,2.125,0.021s-0.108-1.432-0.879-1.349
	c-0.292-0.458-0.948-2.996-1.144-3.555c-0.194-0.561-0.093-1.805-0.067-2.644c0.026-0.839,0.943-0.198,4.882-0.226
	c3.938-0.025,4.813-0.438,4.813-0.438s1.031,6.549,1.09,7.026c0.079,0.52-0.085,1.082,0.185,1.082c0.271,0,1.932-0.005,2.394-0.005
	s0.022-1.506-1.054-1.504C18.885,29.725,18.72,26.6,18.72,26.6l1.719-3.156c0,0,2.656,2.699,3.031,3.406
	c0.375,0.709,0.198,2.615,0.198,2.615s-0.354,0.417-0.459,0.688c0.258,0.412,0.908,0.908,1.479,1.479
	c0.75-0.167,0.804-1.149,0.625-1.708c-0.178-0.559-0.458-0.917-0.458-0.917s0.479-1.729,0.291-2.354s-2.271-5.271-2.771-6.707
	c-0.5-1.438,2.398-6.229,2.398-6.229s3.989,2.211,5.062,1.202C30.53,14.284,27.993,11.113,28.43,9.632z"/>
</svg>
