<?xml version="1.0" encoding="iso-8859-1"?>
<!-- Generator: Adobe Illustrator 17.1.0, SVG Export Plug-In . SVG Version: 6.00 Build 0)  -->
<!DOCTYPE svg PUBLIC "-//W3C//DTD SVG 1.1//EN" "http://www.w3.org/Graphics/SVG/1.1/DTD/svg11.dtd">
<svg version="1.1" id="Capa_1" xmlns="http://www.w3.org/2000/svg" xmlns:xlink="http://www.w3.org/1999/xlink" x="0px" y="0px"
	 viewBox="0 0 64 64" style="enable-background:new 0 0 64 64;" xml:space="preserve">
<g>
	<path d="M26.185,4.528c-1.599,0-3.045,0.649-4.091,1.699l0,0l-0.938-0.947c-0.412-0.414-1.226-0.712-1.761-0.479
		c-1.105,0.483-2.797,1.817-3.429,5.5c-0.503,2.938-1.53,3.138-2.4,2.651c-1.02-0.57-1.312-0.53-0.717,0.477
		c0.708,1.197,2.003,2.33,4.242,1.377c3.827-1.631,0.823-7.756,3.657-6.434c-0.214,0.604-0.337,1.252-0.337,1.929
		c0,3.189,2.584,5.771,5.774,5.771c3.19,0,5.774-2.582,5.774-5.771C31.959,7.11,29.375,4.528,26.185,4.528z"/>
	<path d="M35.385,30.805c0.229,0.062,0.46,0.09,0.689,0.09c1.046,0,2.026-0.615,2.459-1.615l1.748-4.037l3.706,0.62
		c0.741,0.861,1.825,1.417,3.05,1.417c2.232,0,4.041-1.809,4.041-4.041c0-2.23-1.809-4.038-4.041-4.038
		c-1.146,0-2.175,0.482-2.91,1.247l-1.65-0.276l0.701-1.619c0.006-0.014,0.008-0.029,0.014-0.043
		c1.295-0.673,2.188-2.011,2.188-3.572c0-2.231-1.809-4.038-4.041-4.038c-2.232,0-4.04,1.807-4.04,4.038
		c0,0.808,0.243,1.557,0.651,2.189l-0.924,2.133l-7.695-1.288c-0.221-0.037-0.439-0.037-0.653-0.02l-3.155-0.35
		c-0.581-0.064-1.483,0.081-1.985,0.38c-7.298,4.353-6.572,15.832-6.572,15.832l0.013,0.003c0,0.294,0.024,0.591,0.1,0.888
		l2.016,7.842L14.88,54.727c-0.646,1.866,0.343,3.903,2.209,4.549c0.387,0.133,0.781,0.196,1.169,0.196
		c1.481,0,2.866-0.928,3.378-2.406l4.569-13.199c0.037-0.107,0.061-0.219,0.087-0.329l1.628,1.584l6.59,12.449
		c0.642,1.211,1.881,1.901,3.164,1.901c0.564,0,1.137-0.135,1.669-0.415c1.746-0.925,2.41-3.088,1.486-4.833l-6.853-12.945
		c-0.175-0.33-0.399-0.63-0.667-0.891l-7.466-7.264l1.119-4.557L35.385,30.805z M28.28,23.216c0.057,0.014,0.109,0.035,0.168,0.045
		l6.385,1.069l-0.303,0.699l-6.286-1.669L28.28,23.216z"/>
</g>
</svg>
