<?xml version="1.0" encoding="iso-8859-1"?>
<!-- Generator: Adobe Illustrator 17.0.2, SVG Export Plug-In . SVG Version: 6.00 Build 0)  -->
<!DOCTYPE svg PUBLIC "-//W3C//DTD SVG 1.1//EN" "http://www.w3.org/Graphics/SVG/1.1/DTD/svg11.dtd">
<svg version="1.1" id="Layer_1" xmlns="http://www.w3.org/2000/svg" xmlns:xlink="http://www.w3.org/1999/xlink" x="0px" y="0px"
	 width="64px" height="64px" viewBox="0 0 64 64" style="enable-background:new 0 0 64 64;" xml:space="preserve">
<g>
	<path d="M3.508,21.46l10.044,10.107l-2.814,12.024c-0.258,0.84-0.188,1.542,0.208,2.089c0.336,0.463,0.865,0.728,1.449,0.728
		c0.47,0,0.941-0.165,1.437-0.504l11.66-6.032l3.036,1.571c0.225-1.002,0.547-1.965,0.957-2.883l-3.993-2.066L14.1,42.388
		l2.751-11.756L6.845,20.562l12.605-1.603l6.042-12.004l6.042,12.004l12.605,1.603L34.133,30.632l0.404,1.725
		c1.292-0.935,2.728-1.681,4.278-2.18l8.662-8.717c1.205-0.937,1.049-1.928,0.922-2.318c-0.128-0.393-0.589-1.294-2.137-1.333
		l-12.766-1.624L27.414,4.1c-0.518-1.441-1.511-1.6-1.921-1.6c-0.411,0-1.404,0.159-1.922,1.6l-6.082,12.085L4.723,17.809
		c-1.547,0.039-2.009,0.941-2.137,1.333C2.459,19.532,2.303,20.523,3.508,21.46z"/>
	<path d="M58.729,45.809c0-5.365-2.99-10.042-7.389-12.46c-2.026-1.113-4.349-1.749-6.819-1.749c-2.417,0-4.693,0.61-6.687,1.679
		c-0.956,0.512-1.839,1.137-2.649,1.846c-1.451,1.27-2.637,2.827-3.477,4.585c-0.433,0.905-0.773,1.859-1.008,2.857
		c-0.245,1.043-0.388,2.125-0.388,3.242c0,2.471,0.636,4.795,1.75,6.821c2.418,4.398,7.095,7.387,12.458,7.387
		c0.799,0,1.577-0.082,2.34-0.21c5.958-0.994,10.662-5.697,11.658-11.654C58.646,47.389,58.729,46.609,58.729,45.809z
		 M44.521,57.017c-6.18,0-11.208-5.028-11.208-11.208c0-0.617,0.063-1.218,0.16-1.808c0.167-1.025,0.472-2.002,0.898-2.914
		c0.428-0.916,0.97-1.767,1.618-2.528c0.735-0.864,1.6-1.61,2.562-2.219c1.731-1.096,3.775-1.74,5.971-1.74
		c6.18,0,11.208,5.028,11.208,11.208c0,0.594-0.06,1.172-0.149,1.741c-0.752,4.787-4.535,8.569-9.322,9.319
		C45.69,56.957,45.113,57.017,44.521,57.017z"/>
	<path d="M45.136,42.875c-0.68,0-1.257,0.088-1.731,0.264c-0.283,0.107-0.677,0.325-1.182,0.654l0.596-3.64h6.799v-2.779h-9.16
		l-0.586,4.615l-0.54,4.251l-0.042,0.331l2.933,0.138c0.26-0.498,0.646-0.838,1.158-1.022c0.29-0.1,0.633-0.149,1.031-0.149
		c0.84,0,1.458,0.293,1.856,0.878c0.396,0.586,0.595,1.303,0.595,2.153c0,0.865-0.212,1.583-0.635,2.153
		c-0.424,0.57-1.041,0.855-1.851,0.855c-0.702,0-1.237-0.193-1.604-0.58c-0.366-0.387-0.614-0.936-0.744-1.648h-3.261
		c0.115,1.562,0.68,2.767,1.697,3.617s2.318,1.275,3.9,1.275c1.965,0,3.441-0.605,4.428-1.814c0.986-1.209,1.479-2.583,1.479-4.122
		c0-1.768-0.512-3.115-1.537-4.042C47.711,43.338,46.512,42.875,45.136,42.875z"/>
</g>
</svg>
