<?xml version="1.0" encoding="iso-8859-1"?>
<!-- Generator: Adobe Illustrator 16.0.0, SVG Export Plug-In . SVG Version: 6.00 Build 0)  -->
<!DOCTYPE svg PUBLIC "-//W3C//DTD SVG 1.1//EN" "http://www.w3.org/Graphics/SVG/1.1/DTD/svg11.dtd">
<svg version="1.1" xmlns="http://www.w3.org/2000/svg" xmlns:xlink="http://www.w3.org/1999/xlink" x="0px" y="0px" width="512px"
	 height="512px" viewBox="0 0 512 512" style="enable-background:new 0 0 512 512;" xml:space="preserve">
<g id="Guides_For_Artboard">
</g>
<g id="_x30_">
</g>
<g id="_x31_">
</g>
<g id="_x32_">
</g>
<g id="_x33_">
</g>
<g id="_x34_">
</g>
<g id="_x35_">
</g>
<g id="_x36_">
</g>
<g id="_x37_">
</g>
<g id="_x38_">
</g>
<g id="_x39_">
</g>
<g id="_x31_0">
</g>
<g id="_x31_1">
</g>
<g id="_x31_2">
</g>
<g id="_x31_3">
</g>
<g id="_x31_4">
</g>
<g id="_x31_5">
</g>
<g id="_x31_6">
</g>
<g id="_x31_7">
</g>
<g id="_x31_8">
</g>
<g id="_x31_9">
</g>
<g id="_x32_0">
</g>
<g id="_x32_1">
</g>
<g id="_x32_2">
</g>
<g id="_x32_3">
</g>
<g id="_x32_4">
</g>
<g id="_x32_5">
</g>
<g id="_x32_6">
</g>
<g id="_x32_7">
</g>
<g id="_x32_8">
</g>
<g id="_x32_9">
</g>
<g id="_x33_0">
</g>
<g id="_x33_1">
</g>
<g id="_x33_2">
</g>
<g id="_x33_3">
</g>
<g id="_x33_4">
</g>
<g id="_x33_5">
</g>
<g id="_x33_6">
</g>
<g id="_x33_7">
</g>
<g id="_x33_8">
</g>
<g id="_x33_9">
</g>
<g id="_x34_0">
</g>
<g id="_x34_1">
</g>
<g id="_x34_2">
</g>
<g id="_x34_3">
</g>
<g id="_x34_4">
</g>
<g id="_x34_5">
</g>
<g id="_x34_6">
</g>
<g id="_x34_7">
</g>
<g id="_x34_8">
	<g>
		<path d="M111.104,169.652c-20.659,3.066-28.628,7.501-45.04,25.076c-18.39,19.694-30.219,51.143-29.696,81.089
			c0,33.438,10.888,63.259,27.897,82.719c-0.034,0.288-0.056,0.579-0.056,0.876v58.372c0,4.122,3.342,7.464,7.464,7.464h71.601
			c4.123,0,7.464-3.342,7.464-7.464v-58.372c0-0.763-0.116-1.499-0.329-2.191c17.83-23.558,28.244-56.925,27.345-67.464
			c-1.112-13.039-14.631-33.254-31.016-28.374c-13.384,3.986-21.368,22.595-29.697,21.611c-7.05-0.834-4.46-13.789,3.135-26.398
			c12.311-20.436,61.373,8.416,65.992-30.189C190.79,187.801,157.794,162.724,111.104,169.652z M135.811,410.32H79.139v-43.444
			h56.672V410.32z"/>
		<path d="M445.936,194.729c-16.41-17.575-24.38-22.01-45.04-25.076c-46.689-6.929-79.686,18.148-75.066,56.754
			s53.682,9.754,65.991,30.189c7.597,12.609,10.186,25.564,3.136,26.398c-8.328,0.983-16.313-17.625-29.696-21.611
			c-16.385-4.88-29.904,15.335-31.016,28.374c-0.899,10.539,9.515,43.905,27.346,67.462c-0.213,0.694-0.329,1.43-0.329,2.193v58.372
			c0,4.122,3.342,7.464,7.464,7.464h71.601c4.122,0,7.464-3.342,7.464-7.464v-58.372c0-0.297-0.022-0.588-0.056-0.875
			c17.009-19.46,27.898-49.281,27.898-82.72C476.153,245.871,464.325,214.423,445.936,194.729z M432.861,410.32h-56.673v-43.444
			h56.673V410.32z"/>
		<path d="M306.128,216.996c-0.022-0.122-0.026-0.244-0.059-0.367l-0.027-0.104c-0.146-0.664-0.324-1.32-0.522-1.971L264.468,59.775
			c12.864-3.556,22.34-15.357,22.34-29.337C286.808,13.654,273.153,0,256.369,0c-16.784,0-30.438,13.654-30.438,30.438
			c0,14.025,9.537,25.858,22.465,29.372l-38.685,152.018c-1.356,3.133-2.093,6.452-2.093,9.892c0,0.337,0.023,0.669,0.037,1.004
			h-0.037v211.834h0.197c2.181,17.574,23.411,31.367,49.297,31.367c25.885,0,47.116-13.793,49.297-31.367h0.196V222.724h-0.036
			c0.014-0.335,0.036-0.667,0.036-1.004C306.605,220.116,306.435,218.541,306.128,216.996z M223.886,196.262L251.42,88.065v99.538
			C240.881,188.441,231.347,191.569,223.886,196.262z M290.444,196.33c-7.824-4.951-17.948-8.174-29.126-8.828V86.515
			L290.444,196.33z M235.829,30.438c0-11.326,9.214-20.54,20.54-20.54c11.326,0,20.54,9.214,20.54,20.54
			c0,9.398-6.352,17.323-14.982,19.756l-0.659-2.485c-0.346-2.396-2.407-4.235-4.898-4.235c-2.504,0-4.574,1.86-4.904,4.273
			l-0.625,2.455C242.195,47.779,235.829,39.848,235.829,30.438z"/>
	</g>
</g>
<g id="_x34_9">
</g>
<g id="_x35_0">
</g>
<g id="_x35_1">
</g>
<g id="_x35_2">
</g>
<g id="_x35_3">
</g>
<g id="_x35_4">
</g>
<g id="_x35_5">
</g>
<g id="_x35_6">
</g>
<g id="_x35_7">
</g>
<g id="_x35_8">
</g>
<g id="_x35_9">
</g>
<g id="_x36_0">
</g>
<g id="_x36_1">
</g>
<g id="_x36_2">
</g>
<g id="_x36_3">
</g>
<g id="_x36_4">
</g>
<g id="_x36_5">
</g>
<g id="_x36_6">
</g>
<g id="_x36_7">
</g>
<g id="_x36_8">
</g>
<g id="_x36_9">
</g>
<g id="_x37_0">
</g>
</svg>
