<?xml version="1.0" encoding="iso-8859-1"?>
<!-- Generator: Adobe Illustrator 18.0.0, SVG Export Plug-In . SVG Version: 6.00 Build 0)  -->
<!DOCTYPE svg PUBLIC "-//W3C//DTD SVG 1.1//EN" "http://www.w3.org/Graphics/SVG/1.1/DTD/svg11.dtd">
<svg version="1.1" id="Capa_1" xmlns="http://www.w3.org/2000/svg" xmlns:xlink="http://www.w3.org/1999/xlink" x="0px" y="0px"
	 viewBox="0 0 65.231 84.907" style="enable-background:new 0 0 65.231 84.907;" xml:space="preserve">
<path d="M65.004,35.756c-0.406-1.03-1.219-1.54-2.39-1.54H39.88l11.296-30.71c0.492-1.33,0.065-2.34-1.031-3.09
	c-0.968-0.66-2.385-0.51-3.187,0.28L0.786,46.216c-0.802,0.79-0.992,1.78-0.562,2.9c0.414,1.08,1.219,1.6,2.39,1.6h22.734
	l-11.296,30.75c-0.491,1.33-0.073,2.31,1.031,3.04c0.725,0.49,2.192,0.7,3.281-0.37l46.078-45.52
	C65.243,37.826,65.442,36.876,65.004,35.756z M22.958,72.326l8.531-23.3c0.326-0.89,0.234-1.74-0.281-2.44
	c-0.516-0.7-1.219-1.03-2.11-1.03H8.942l33.328-32.95l-8.578,23.34c-0.297,0.81-0.166,1.58,0.328,2.3
	c0.538,0.78,1.219,1.17,2.11,1.17h20.156L22.958,72.326z"/>
<g>
</g>
<g>
</g>
<g>
</g>
<g>
</g>
<g>
</g>
<g>
</g>
<g>
</g>
<g>
</g>
<g>
</g>
<g>
</g>
<g>
</g>
<g>
</g>
<g>
</g>
<g>
</g>
<g>
</g>
</svg>
