<?xml version="1.0" encoding="iso-8859-1"?>
<!-- Generator: Adobe Illustrator 17.1.0, SVG Export Plug-In . SVG Version: 6.00 Build 0)  -->
<!DOCTYPE svg PUBLIC "-//W3C//DTD SVG 1.1//EN" "http://www.w3.org/Graphics/SVG/1.1/DTD/svg11.dtd">
<svg version="1.1" id="Capa_1" xmlns="http://www.w3.org/2000/svg" xmlns:xlink="http://www.w3.org/1999/xlink" x="0px" y="0px"
	 viewBox="0 0 64 64" style="enable-background:new 0 0 64 64;" xml:space="preserve">
<g>
	<path d="M56.236,41.599c-0.607-1.139-1.587-1.136-2.188,0.007l-0.744,1.413c-0.602,1.142-2.135,2.068-3.425,2.068h-1.752
		c-1.291,0-3.1,0.716-4.041,1.599l-3.383,3.173l-0.129-11.021c0.086-1.929-1.108-2.576-1.108-2.576l-5.913-2.716l3.521-7.074
		l4.029,2.396c0,0,1.618,1.016,2.795-0.975l3.872-6.598c0.17-0.368,0.219-0.791,0.11-1.214c-0.249-0.968-1.235-1.554-2.206-1.305
		c-0.427,0.109-0.78,0.365-1.02,0.702l-3.218,5.434l-6.565-3.88c-0.495-0.284-1.1-0.386-1.7-0.231l-8.193,2.104
		c-0.526,0.135-0.937,0.498-1.152,0.956l-3.984,7.965c-0.271,0.403-0.379,0.913-0.248,1.423c0.239,0.935,1.198,1.502,2.137,1.261
		c0.527-0.135,0.936-0.496,1.15-0.958l3.693-7.41l3.026-0.763l-7.969,15.678l-6.9,1.75c-0.184,0.041-0.364,0.107-0.54,0.192
		c-1.108,0.566-1.535,1.901-0.969,3.012c0.495,0.969,1.595,1.426,2.604,1.148l8.164-2.111c1.945-0.428,2.438-1.511,2.438-1.511
		l3.198-6.148l6.513,3.731l0.062,9.016c0.001,0.113,0.027,0.226,0.044,0.339l-1.213-0.438c-1.214-0.438-3.197-0.482-4.43-0.1
		l-2.733,0.85c-1.233,0.383-3.22,0.349-4.439-0.075l-2.01-0.7c-1.219-0.424-3.015-0.103-4.013,0.715l-2.51,2.062
		c-0.998,0.818-2.789,1.121-4,0.678l-3.222-1.182c-1.211-0.445-2.678,0.121-3.277,1.265l-0.754,1.442
		c-0.599,1.143-0.037,2.07,1.253,2.07H55.72c1.29,0,2.542-1.025,2.795-2.291l0.837-4.181c0.252-1.265-0.034-3.214-0.642-4.352
		L56.236,41.599z"/>
	<path d="M37.537,20.65c1.862-0.477,2.987-2.376,2.508-4.238c-0.479-1.866-2.378-2.986-4.241-2.508
		c-1.861,0.479-2.984,2.375-2.506,4.239C33.777,20.007,35.676,21.129,37.537,20.65z"/>
</g>
</svg>
