<?xml version="1.0" encoding="iso-8859-1"?>
<!-- Generator: Adobe Illustrator 17.0.2, SVG Export Plug-In . SVG Version: 6.00 Build 0)  -->
<!DOCTYPE svg PUBLIC "-//W3C//DTD SVG 1.1//EN" "http://www.w3.org/Graphics/SVG/1.1/DTD/svg11.dtd">
<svg version="1.1" id="Layer_1" xmlns="http://www.w3.org/2000/svg" xmlns:xlink="http://www.w3.org/1999/xlink" x="0px" y="0px"
	 width="64px" height="64px" viewBox="0 0 64 64" style="enable-background:new 0 0 64 64;" xml:space="preserve">
<g>
	<path d="M4.1,21.401l10.043,10.107l-2.814,12.024c-0.258,0.84-0.188,1.543,0.209,2.089c0.606,0.835,1.772,0.986,2.886,0.224
		l11.66-6.032l3.036,1.57c0.225-1.002,0.547-1.965,0.957-2.883l-3.993-2.066l-11.392,5.894l2.751-11.756L7.438,20.504l12.604-1.603
		l6.042-12.004l6.042,12.004l12.604,1.603L34.725,30.573l0.404,1.725c1.292-0.935,2.728-1.681,4.278-2.18l8.662-8.717
		c1.205-0.937,1.049-1.927,0.922-2.318c-0.127-0.393-0.589-1.294-2.137-1.333l-12.766-1.624L28.005,4.042
		c-0.518-1.441-1.511-1.6-1.921-1.6c-0.411,0-1.404,0.159-1.922,1.6L18.08,16.126L5.314,17.75c-1.548,0.039-2.009,0.941-2.137,1.333
		C3.051,19.474,2.895,20.465,4.1,21.401z"/>
	<path d="M51.933,33.292c-2.026-1.114-4.35-1.75-6.821-1.75c-2.417,0-4.692,0.61-6.687,1.679c-0.956,0.512-1.839,1.137-2.649,1.845
		c-1.451,1.27-2.637,2.827-3.477,4.585c-0.433,0.905-0.773,1.859-1.007,2.857c-0.245,1.043-0.388,2.125-0.388,3.242
		c0,2.471,0.636,4.794,1.75,6.82c2.418,4.399,7.094,7.388,12.458,7.388c0.799,0,1.577-0.082,2.34-0.21
		c5.959-0.994,10.665-5.7,11.659-11.659c0.127-0.763,0.21-1.541,0.21-2.34C59.32,40.386,56.331,35.709,51.933,33.292z
		 M45.112,56.958c-6.18,0-11.208-5.028-11.208-11.208c0-0.617,0.063-1.218,0.16-1.808c0.167-1.025,0.472-2.002,0.898-2.914
		c0.428-0.916,0.97-1.767,1.619-2.528c0.735-0.864,1.6-1.61,2.562-2.219c1.731-1.095,3.775-1.739,5.97-1.739
		c6.18,0,11.208,5.028,11.208,11.208c0,0.592-0.06,1.169-0.149,1.737c-0.75,4.789-4.534,8.573-9.323,9.323
		C46.281,56.899,45.704,56.958,45.112,56.958z"/>
	<polygon points="41.839,39.317 42.516,41.98 45.195,40.533 45.195,54.312 48.304,54.312 48.304,37.188 45.817,37.188 	"/>
</g>
</svg>
