<?xml version="1.0" encoding="iso-8859-1"?>
<!-- Generator: Adobe Illustrator 17.1.0, SVG Export Plug-In . SVG Version: 6.00 Build 0)  -->
<!DOCTYPE svg PUBLIC "-//W3C//DTD SVG 1.1//EN" "http://www.w3.org/Graphics/SVG/1.1/DTD/svg11.dtd">
<svg version="1.1" id="Capa_1" xmlns="http://www.w3.org/2000/svg" xmlns:xlink="http://www.w3.org/1999/xlink" x="0px" y="0px"
	 viewBox="0 0 64 64" style="enable-background:new 0 0 64 64;" xml:space="preserve">
<g>
	<circle cx="10.305" cy="20.447" r="6.743"/>
	<path d="M57.73,6.139c-1.765-1.744-4.611-0.732-6.357,1.032L35.25,23.625l-5.821,0.705c-0.594,0.183-1.488,0.044-1.999-0.31
		l-0.805-0.557l11.416-8.894c1.713-1.334,2.021-3.806,0.685-5.52c-1.333-1.713-3.805-2.019-5.519-0.686l-12.08,9.411
		c-0.745,0.581-1.207,1.38-1.401,2.234c-0.004,0.008-0.011,0.013-0.015,0.021c0,0-4.461,7.195-4.458,7.406
		c-0.898,1.19-1.086,2.835-0.333,4.232l6.555,12.174c0.711,1.319,2.066,2.069,3.466,2.069c0.63,0,1.269-0.151,1.862-0.471
		c1.912-1.03,2.627-3.415,1.598-5.328l-2.891-5.369l6.726,0.39v21.674c0,2.481,1.012,4.494,3.494,4.494
		c2.482,0,3.495-2.013,3.495-4.494V30.401c0-0.062-0.016-0.12-0.018-0.182l17.212-17.97C58.163,10.485,59.494,7.886,57.73,6.139z"/>
</g>
</svg>
