<?xml version="1.0" encoding="iso-8859-1"?>
<!-- Generator: Adobe Illustrator 16.0.0, SVG Export Plug-In . SVG Version: 6.00 Build 0)  -->
<!DOCTYPE svg PUBLIC "-//W3C//DTD SVG 1.1//EN" "http://www.w3.org/Graphics/SVG/1.1/DTD/svg11.dtd">
<svg version="1.1" id="Layer_1" xmlns="http://www.w3.org/2000/svg" xmlns:xlink="http://www.w3.org/1999/xlink" x="0px" y="0px"
	 width="512px" height="512px" viewBox="0 0 512 512" style="enable-background:new 0 0 512 512;" xml:space="preserve">
<g>
	<circle cx="267.068" cy="89.307" r="60.109"/>
	<polygon points="417.211,374.052 364.123,175.748 411.505,175.748 469.932,240.296 490.003,196.129 438.106,128.314 
		348.375,128.314 248.349,168.936 196.117,168.936 151.059,115.967 131.797,151.39 167.448,221.234 261.08,221.234 281.292,308.728 
		210.096,328.283 177.731,454.276 210.001,482.803 252.694,380.908 346.515,355.139 355.83,397.694 491.064,481.807 
		504.473,441.845 	"/>
	<circle cx="70.611" cy="188.711" r="28.032"/>
	<polygon points="140.63,321.503 110.773,211.715 61.881,225.847 37.523,225.847 16.509,201.144 7.527,217.663 24.152,250.235 
		67.819,250.235 77.244,291.039 44.041,300.159 28.948,358.917 43.998,372.219 63.907,324.7 107.661,312.682 112.006,332.529 
		175.072,371.754 181.326,353.118 	"/>
</g>
</svg>
