<?xml version="1.0" encoding="iso-8859-1"?>
<!-- Generator: Adobe Illustrator 17.0.2, SVG Export Plug-In . SVG Version: 6.00 Build 0)  -->
<!DOCTYPE svg PUBLIC "-//W3C//DTD SVG 1.1//EN" "http://www.w3.org/Graphics/SVG/1.1/DTD/svg11.dtd">
<svg version="1.1" id="Layer_1" xmlns="http://www.w3.org/2000/svg" xmlns:xlink="http://www.w3.org/1999/xlink" x="0px" y="0px"
	 width="64px" height="64px" viewBox="0 0 64 64" style="enable-background:new 0 0 64 64;" xml:space="preserve">
<g>
	<path d="M4.509,21.401l10.042,10.107l-2.813,12.024c-0.259,0.84-0.188,1.543,0.209,2.089c0.606,0.834,1.772,0.986,2.886,0.224
		l11.66-6.032l3.036,1.571c0.225-1.002,0.547-1.965,0.957-2.883l-3.993-2.066L15.1,42.33l2.752-11.756L7.846,20.504l12.605-1.603
		l6.041-12.004l6.041,12.004l12.605,1.603L35.132,30.573l0.404,1.726c1.292-0.935,2.728-1.681,4.278-2.181l8.662-8.717
		c1.205-0.936,1.05-1.927,0.923-2.317c-0.128-0.393-0.589-1.295-2.137-1.334l-12.766-1.624L28.414,4.042
		c-0.518-1.441-1.511-1.6-1.922-1.6s-1.404,0.159-1.922,1.6l-6.082,12.085L5.723,17.75c-1.548,0.039-2.009,0.941-2.137,1.334
		C3.459,19.474,3.304,20.465,4.509,21.401z"/>
	<path d="M52.341,33.291c-2.026-1.114-4.35-1.75-6.82-1.75c-2.417,0-4.693,0.61-6.687,1.679c-0.956,0.512-1.84,1.137-2.65,1.846
		c-1.451,1.269-2.637,2.827-3.477,4.584c-0.432,0.905-0.773,1.859-1.007,2.857c-0.245,1.043-0.388,2.126-0.388,3.243
		c0,2.469,0.635,4.792,1.748,6.817c2.417,4.401,7.095,7.391,12.461,7.391c0.799,0,1.577-0.082,2.34-0.21
		c5.958-0.994,10.662-5.697,11.658-11.654c0.128-0.765,0.21-1.544,0.21-2.344C59.729,40.386,56.739,35.709,52.341,33.291z
		 M45.521,56.958c-6.181,0-11.209-5.028-11.209-11.208c0-0.617,0.063-1.218,0.16-1.809c0.167-1.025,0.472-2.001,0.898-2.913
		c0.428-0.916,0.97-1.766,1.618-2.528c0.735-0.864,1.6-1.61,2.562-2.219c1.731-1.096,3.775-1.74,5.971-1.74
		c6.18,0,11.208,5.028,11.208,11.208c0,0.593-0.06,1.172-0.149,1.741c-0.752,4.787-4.535,8.569-9.322,9.319
		C46.689,56.899,46.112,56.958,45.521,56.958z"/>
	<path d="M48.806,45.052c0.407-0.156,0.798-0.45,1.173-0.88c0.595-0.688,0.892-1.533,0.892-2.534c0-1.416-0.499-2.544-1.494-3.385
		c-0.997-0.841-2.308-1.261-3.933-1.261c-0.876,0-1.613,0.106-2.216,0.317c-0.602,0.211-1.121,0.516-1.559,0.915
		c-0.564,0.541-0.978,1.131-1.253,1.767c-0.011,0.026-0.026,0.05-0.036,0.076c-0.258,0.759-0.403,1.561-0.434,2.405h1.051h2.07
		c-0.016-0.837,0.162-1.506,0.532-2.006c0.372-0.501,0.95-0.751,1.739-0.751c0.686,0,1.218,0.203,1.598,0.61
		c0.377,0.407,0.567,0.935,0.567,1.584c0,1.001-0.37,1.666-1.111,1.995c-0.428,0.196-1.185,0.301-2.268,0.317v2.394
		c1.107,0,1.918,0.106,2.433,0.317c0.905,0.375,1.357,1.122,1.357,2.241c0,0.845-0.244,1.492-0.731,1.942
		c-0.489,0.45-1.06,0.675-1.715,0.675c-1.07,0-1.807-0.411-2.212-1.232c-0.219-0.446-0.328-1.009-0.328-1.69h-3.285
		c0.055,1.353,0.329,2.448,0.821,3.285c0.937,1.572,2.609,2.358,5.016,2.358c1.954,0,3.428-0.546,4.426-1.637
		c0.995-1.091,1.494-2.357,1.494-3.796c0-1.369-0.426-2.448-1.279-3.239C49.549,45.314,49.111,45.052,48.806,45.052z"/>
</g>
</svg>
