<?xml version="1.0" encoding="iso-8859-1"?>
<!-- Generator: Adobe Illustrator 17.0.2, SVG Export Plug-In . SVG Version: 6.00 Build 0)  -->
<!DOCTYPE svg PUBLIC "-//W3C//DTD SVG 1.1//EN" "http://www.w3.org/Graphics/SVG/1.1/DTD/svg11.dtd">
<svg version="1.1" id="Layer_1" xmlns="http://www.w3.org/2000/svg" xmlns:xlink="http://www.w3.org/1999/xlink" x="0px" y="0px"
	 width="64px" height="64px" viewBox="0 0 64 64" style="enable-background:new 0 0 64 64;" xml:space="preserve">
<g>
	<path d="M4.508,21.401l10.044,10.107l-2.814,12.024c-0.258,0.84-0.188,1.543,0.209,2.089c0.606,0.835,1.772,0.986,2.886,0.224
		l11.66-6.032l3.036,1.571c0.225-1.002,0.547-1.965,0.957-2.883l-3.993-2.066L15.1,42.329l2.751-11.756L7.846,20.504l12.604-1.603
		l6.042-12.004l6.042,12.004l12.604,1.603L35.133,30.573l0.404,1.725c1.292-0.935,2.728-1.681,4.277-2.18l8.662-8.717
		c1.205-0.936,1.05-1.927,0.923-2.317c-0.127-0.393-0.589-1.295-2.137-1.334l-12.766-1.624L28.414,4.042
		c-0.518-1.441-1.511-1.6-1.921-1.6c-0.411,0-1.404,0.159-1.922,1.6l-6.082,12.085L5.723,17.75
		c-1.547,0.039-2.009,0.941-2.137,1.333C3.459,19.474,3.304,20.465,4.508,21.401z"/>
	<path d="M59.729,45.75c0-5.364-2.99-10.042-7.389-12.459c-2.026-1.113-4.349-1.749-6.819-1.749c-2.417,0-4.693,0.61-6.687,1.679
		c-0.956,0.512-1.839,1.137-2.649,1.846c-1.451,1.27-2.637,2.827-3.477,4.585c-0.433,0.905-0.773,1.859-1.008,2.857
		c-0.245,1.043-0.388,2.125-0.388,3.242c0,2.471,0.636,4.795,1.75,6.821c2.418,4.399,7.095,7.388,12.458,7.388
		c0.799,0,1.577-0.082,2.34-0.21c5.958-0.994,10.662-5.697,11.658-11.654C59.646,47.33,59.729,46.55,59.729,45.75z M45.521,56.958
		c-6.18,0-11.208-5.028-11.208-11.208c0-0.617,0.063-1.218,0.16-1.808c0.167-1.025,0.472-2.002,0.898-2.914
		c0.428-0.916,0.97-1.767,1.618-2.528c0.735-0.864,1.6-1.61,2.562-2.219c1.731-1.096,3.775-1.74,5.971-1.74
		c6.18,0,11.208,5.028,11.208,11.208c0,0.594-0.06,1.172-0.149,1.741c-0.752,4.787-4.535,8.569-9.322,9.319
		C46.69,56.899,46.113,56.958,45.521,56.958z"/>
	<path d="M44.734,50.225c0.296-0.255,0.845-0.666,1.647-1.235l1.283-0.91c1.08-0.764,1.857-1.456,2.329-2.078
		c0.72-0.936,1.08-2.006,1.08-3.212c0-1.572-0.51-2.836-1.529-3.79c-1.019-0.955-2.39-1.432-4.114-1.432
		c-2.181,0-3.698,0.812-4.553,2.437c-0.111,0.211-0.21,0.438-0.297,0.682c-0.265,0.742-0.417,1.633-0.457,2.676h1.083h2.028
		c0.037-0.913,0.157-1.58,0.359-1.999c0.352-0.726,1.014-1.089,1.988-1.089c0.711,0,1.258,0.228,1.64,0.685
		c0.382,0.457,0.573,1.029,0.573,1.718c0,0.846-0.333,1.625-1,2.336c-0.434,0.457-1.389,1.213-2.864,2.269
		c-1.699,1.213-2.778,2.362-3.234,3.448c-0.472,0.966-0.722,2.033-0.752,3.201h11.152v-2.819h-7.109
		C44.19,50.776,44.438,50.48,44.734,50.225z"/>
</g>
</svg>
