<?xml version="1.0" encoding="utf-8"?>
<!-- Generator: Adobe Illustrator 16.0.0, SVG Export Plug-In . SVG Version: 6.00 Build 0)  -->
<!DOCTYPE svg PUBLIC "-//W3C//DTD SVG 1.1//EN" "http://www.w3.org/Graphics/SVG/1.1/DTD/svg11.dtd">
<svg version="1.1" id="Layer_1" xmlns="http://www.w3.org/2000/svg" xmlns:xlink="http://www.w3.org/1999/xlink" x="0px" y="0px"
	 width="100px" height="100px" viewBox="0 0 100 100" enable-background="new 0 0 100 100" xml:space="preserve">
<g>
	<path d="M80.718,63.627c-1.495,0.319-3.054,0.597-4.584,0.827h0l-2.609,2.259l-0.269-1.882c-0.703,0.08-1.384,0.147-2.034,0.2
		l-0.781,1.682l-1.793-1.537c-1.388,0.032-2.463-0.035-3.034-0.219c-1.466-0.732-4.388-2.472-7.603-4.45
		c0.248-0.832,0.434-1.669,0.542-2.489c0,0,0.181-1.01,0.155-2.263c-7.037-1.666-12.736-6.889-14.984-13.798l-20.274,2.251L26.5,50
		l-7.99-5.243l-4.099,0.455l-4.786,2.663l-5.88,1.879c-1.513,1.928-2.493,4.331-2.903,6.828l3.579,1.285
		c0,0-1.785,1.267-3.743,2.696c0.012,0.135,0.013,0.272,0.028,0.406c0.127,1.15,0.379,2.293,0.746,3.395
		c0.015,0.046,0.036,0.093,0.051,0.14c2.604,0.012,5.094,0.034,5.094,0.034l-0.629,6.622l6.133,0.57l-1.218,2.341
		c0,0,2.126-0.234,3.282-0.362l33.823-3.755c0.66-0.073,1.283-0.217,1.883-0.4c4.135,2.565,8.39,5.128,10.53,6.182
		c2.083,1.026,5.016,1.393,8.143,1.393c0.899,0,2.729-0.086,2.729-0.086l-0.016-2.348l6.336,1.667
		c0.391-0.059,0.773-0.119,1.146-0.18l2.313-4.116l3.148,2.964c2.653-1.064,4.238-3.907,3.62-6.798
		C87.131,64.998,83.952,62.935,80.718,63.627z"/>
	<path d="M62.418,53.614c8.462-0.94,14.561-8.563,13.621-17.024c-0.94-8.463-8.562-14.561-17.024-13.622
		c-1.473,0.164-2.868,0.541-4.173,1.079l-1.629,2.764l-0.938-1.406c-1.183,0.776-2.243,1.708-3.164,2.764l-0.796,7.167
		c0,0-0.983-0.558-2.397-1.368c-0.555,1.899-0.756,3.936-0.524,6.025C46.333,48.455,53.955,54.553,62.418,53.614z"/>
	<path d="M95.773,27.71l-5.985-2.721c-1.411-0.642-3.015-0.71-4.477-0.193l-1.447,0.572v3.256l-1.844-2.527l-6.958,2.75
		c1.868,3.648,2.77,7.592,2.795,11.684c0.092-0.027,0.185-0.039,0.276-0.072l8.899-3.573l3.786,1.721
		c3.009,1.523,5.778-0.462,5.778-0.462c0.61-0.403,1.152-0.919,1.588-1.539C98.01,36.841,102.091,30.429,95.773,27.71z"/>
</g>
</svg>
