<?xml version="1.0" encoding="utf-8"?>
<!-- Generator: Adobe Illustrator 16.0.0, SVG Export Plug-In . SVG Version: 6.00 Build 0)  -->
<!DOCTYPE svg PUBLIC "-//W3C//DTD SVG 1.1//EN" "http://www.w3.org/Graphics/SVG/1.1/DTD/svg11.dtd">
<svg version="1.1" id="Layer_1" xmlns="http://www.w3.org/2000/svg" xmlns:xlink="http://www.w3.org/1999/xlink" x="0px" y="0px"
	 width="100px" height="100px" viewBox="0 0 100 100" enable-background="new 0 0 100 100" xml:space="preserve">
<g>
	<path d="M56.05,9.245L53.06,9.83l-0.49,2.804l-0.499-0.499c-0.144,4.131,1.959,8.197,5.813,10.361
		c5.499,3.088,12.46,1.134,15.548-4.364c3.089-5.499,1.134-12.46-4.365-15.548c-1.399-0.786-2.895-1.241-4.396-1.399l1.535,1.247
		h-5.461V1.464c-2.58,0.637-4.934,2.158-6.56,4.441l-0.172,1.47L56.05,9.245z"/>
	<path d="M89.022,33.264l-1.389,0.602l0.569-2.753c-0.849-1.148-2.236-1.866-3.778-1.799c-1.368,0.065-2.736,0.054-4.093-0.02
		l-0.823,0.414l-0.442,2.729l-2.131-2.178L70.5,31.75l4.381-3.069c-13.61-2.264-15.818-4.087-17.345-5.57
		c0,0-0.873-0.903-2.002-1.504c-1.081-0.576-2.408-0.996-2.408-0.996l-0.032-0.012c-3.809-1.061-8.91-0.334-11.209,3.76
		l-3.393,6.042l0.067,0.238l2.598,0.945l-1.871,2.411l-0.262,6.099l-2.965-5.36l-6.516,11.603c-1.648,2.935-1.114,6.185,0.558,8.829
		l-2.104,6.772l3.182-1.191l-2.762,4.711l-1.28-0.751l-2.4,7.726l0.047,0.165l2.598,0.945l-2.538,1.687l0.623,2.778l-2.182-0.901
		l-4.469,14.383c-0.99,3.188,0.792,6.575,3.98,7.566c0.597,0.186,1.201,0.273,1.795,0.273c2.578,0,4.966-1.662,5.771-4.253
		l2.837-9.13l-2.631-1.542l3.52-1.318l6.507-20.945c3.286,2.342,6.934,5.072,9.824,7.354l0.694-2.84l2.053,5.07
		c0.939,0.791,1.674,1.45,2.104,1.904c0.827,2.652,2.241,12.331,3.109,20.259c0.339,3.096,2.958,5.388,6.001,5.388
		c0.22,0,0.442-0.012,0.666-0.036c3.319-0.364,5.715-3.349,5.352-6.667c-0.079-0.716-0.156-1.408-0.233-2.083l-1.819,1.518
		l1.048-5.359l0.32,0.063c-1.984-15.914-3.484-18.417-4.013-19.296c-0.779-1.297-2.712-3.23-5.754-5.771H56.05v-3.118
		c-1.921-1.484-4.106-3.112-6.57-4.891l2.736-4.872l4.286-7.631c1.235,1.939,2.643,3.903,4.056,5.397l1.695-1.623l0.53,2.572
		l2.521,1.134l-1.251,0.705c4.448,2.788,11.002,5.282,12.5,5.834c0.507,0.188,1.025,0.276,1.536,0.276
		c0.781,0,1.536-0.219,2.202-0.601l0.539-2.609l1.615-0.449c0.371-2.073-0.773-4.177-2.817-4.934
		C75.752,45.4,69.406,42.6,67.424,40.86c-1.185-1.041-2.846-3.474-4.346-5.978c5.573,1.801,12.406,3.34,19.51,3.34
		c0.749,0,1.501-0.017,2.254-0.053c2.446-0.116,4.334-2.192,4.219-4.638C89.057,33.44,89.032,33.354,89.022,33.264z"/>
</g>
</svg>
