<?xml version="1.0" encoding="utf-8"?>
<!-- Generator: Adobe Illustrator 15.0.0, SVG Export Plug-In . SVG Version: 6.00 Build 0)  -->
<!DOCTYPE svg PUBLIC "-//W3C//DTD SVG 1.1//EN" "http://www.w3.org/Graphics/SVG/1.1/DTD/svg11.dtd">
<svg version="1.1" id="Layer_1" xmlns="http://www.w3.org/2000/svg" xmlns:xlink="http://www.w3.org/1999/xlink" x="0px" y="0px"
	 width="64px" height="64px" viewBox="0 0 64 64" enable-background="new 0 0 64 64" xml:space="preserve">
<g>
	<path fill="#231F20" d="M22.987,15.675c3.312,0,6.007-2.695,6.007-6.006c0-3.312-2.695-6.007-6.007-6.007S16.98,6.357,16.98,9.669
		C16.98,12.98,19.675,15.675,22.987,15.675z M22.987,4.649c2.767,0,5.019,2.251,5.019,5.02c0,2.768-2.252,5.019-5.019,5.019
		c-2.769,0-5.021-2.251-5.021-5.019C17.966,6.901,20.218,4.649,22.987,4.649z"/>
	<path fill="#231F20" d="M55.739,30.727l3.683-2.568c0.194-0.135,0.265-0.392,0.164-0.615c-0.1-0.211-0.353-0.324-0.576-0.265
		c-0.101,0.026-10.187,2.773-13.596,3.47c-2.115,0.327-4.301,0.493-6.499,0.493c-3.777,0-7.268-0.491-10.277-1.159
		c-0.76-2.108-1.087-4.237-0.946-6.338c1.407,0.53,2.821,1.046,4.384,1.613c1.44,0.523,3.237,1.177,4.942,1.828
		c0.374,0.14,0.743,0.211,1.098,0.211c1.513,0,2.415-1.227,2.638-2.442c0.252-1.357-0.273-3.023-2.007-3.685
		c-1.616-0.616-3.27-1.215-4.866-1.796l-0.159-0.056c-2.606-0.948-5.301-1.928-7.905-2.996c-0.237-0.097-0.474-0.164-0.721-0.202
		c-0.315-0.158-0.653-0.288-1.005-0.384c-1.194-0.33-2.656-0.164-3.885,0.431c-4.714,0.26-8.111-2.539-9.768-8.076
		c-0.4-1.337-1.51-2.168-2.896-2.168c-1.05,0-2.063,0.487-2.647,1.269C4.362,8.007,4.222,8.915,4.5,9.85
		c2.104,7.043,6.608,11.424,12.698,12.354c-0.133,1.575-0.141,3.118-0.025,4.591l0.019,0.276l0.063,0.032l0.723,4.195l-0.065-0.032
		l0.157,0.563l0.063,0.368c0.015,0.083,0.049,0.158,0.102,0.224l1.257,4.542c-1.822,1.53-4.248,3.955-4.778,7.522
		c-0.613,4.119,1.293,7.973,3.13,11.258c0.667,1.19,1.734,1.845,3.007,1.845c1.369,0,2.761-0.806,3.462-2.003
		c0.656-1.119,0.65-2.393-0.019-3.588l-0.152-0.275c-1.015-1.813-2.067-3.688-2.126-5.717c-0.024-0.841,0.426-1.705,1.38-2.637
		c2.8,5.973,6.909,10.942,13.292,16.086c0.717,0.577,1.557,0.882,2.429,0.882c1.668,0,3.336-1.16,3.88-2.7
		c0.458-1.301,0.054-2.586-1.111-3.524c-4.973-4.004-9.938-8.692-12.605-15.831c-0.052-0.139-0.115-0.283-0.189-0.428
		c0.262-0.426,0.44-0.951,0.547-1.421c2.437,0.526,4.747,0.784,7.092,0.784c3.754,0,7.576-0.59,12.42-1.337
		c2.783-0.432,5.935-0.919,9.563-1.381c0.689,0.056,0.852-0.28,0.902-0.475C59.694,33.715,59.842,33.144,55.739,30.727z
		 M28.465,36.172c0.071,0.016,0.138,0.036,0.208,0.054c-0.104,0.446-0.293,0.977-0.546,1.285l-0.222,0.272l0.185,0.298
		c0.106,0.171,0.194,0.353,0.264,0.543c2.75,7.358,7.83,12.161,12.912,16.255c0.831,0.67,1.114,1.534,0.799,2.431
		c-0.411,1.163-1.679,2.041-2.949,2.041c-0.652,0-1.261-0.222-1.811-0.661c-6.455-5.202-10.556-10.241-13.297-16.342l-0.269-0.604
		l-0.498,0.432c-1.527,1.308-2.25,2.571-2.214,3.862c0.07,2.274,1.185,4.261,2.261,6.181l0.147,0.263
		c0.489,0.875,0.498,1.802,0.025,2.606c-0.53,0.906-1.58,1.517-2.611,1.517c-0.899,0-1.66-0.477-2.145-1.339
		c-1.838-3.29-3.585-6.822-3.018-10.635c0.498-3.355,2.935-5.688,4.723-7.146l0.332-0.273l-0.297-0.489l-1.009-3.647
		c1.512,0.662,4.688,1.949,8.477,2.951C28.097,36.072,28.283,36.126,28.465,36.172z M7.541,7.008c0.946,0,1.677,0.549,1.952,1.466
		c1.72,5.755,5.209,8.797,10.089,8.797c0.257,0,0.518-0.008,0.821-0.031l0.155-0.047c1.008-0.516,2.293-0.676,3.269-0.407
		c0.311,0.085,0.61,0.203,0.92,0.36l0.132,0.039c0.195,0.025,0.379,0.075,0.563,0.15c2.623,1.076,5.327,2.059,7.941,3.009
		l0.063,0.021c1.625,0.592,3.305,1.201,4.947,1.826c1.207,0.459,1.565,1.628,1.39,2.583c-0.149,0.814-0.723,1.638-1.668,1.638
		c-0.235,0-0.485-0.051-0.747-0.15c-1.59-0.606-3.218-1.198-4.789-1.771l-0.166-0.062c-1.769-0.643-3.366-1.224-4.979-1.838
		l-0.597-0.227L26.769,23c-0.25,2.258-0.004,4.548,0.723,6.813c-0.668-0.166-1.317-0.334-1.928-0.511
		c-4.37-1.306-7.275-2.771-7.43-2.852c-0.098-1.476-0.069-3.03,0.086-4.622l0.047-0.479L17.79,21.29
		C11.871,20.57,7.485,16.406,5.445,9.568c-0.191-0.637-0.11-1.221,0.238-1.687C6.085,7.343,6.796,7.008,7.541,7.008z M36.729,36.23
		c-2.61,0-5.169-0.313-7.938-0.996c-0.126-0.03-0.254-0.062-0.38-0.094c-2.802-0.72-5.828-1.816-9.353-3.37l-0.7-4.078
		c1.238,0.58,3.651,1.605,6.869,2.536c0.917,0.274,1.896,0.545,2.928,0.794l0.908,0.217l-0.022-0.062
		c2.93,0.613,6.273,1.049,9.877,1.049c2.249,0,4.49-0.168,6.671-0.507c2.38-0.486,7.878-1.935,10.955-2.756l-2.001,1.395
		c-0.14,0.096-0.22,0.255-0.212,0.425c0.006,0.169,0.098,0.321,0.247,0.407c1.5,0.859,2.961,1.813,3.672,2.383
		c-3.52,0.444-6.543,0.912-9.25,1.329C44.199,35.646,40.407,36.23,36.729,36.23z"/>
</g>
</svg>
