<?xml version="1.0" encoding="utf-8"?>
<!-- Generator: Adobe Illustrator 15.0.0, SVG Export Plug-In . SVG Version: 6.00 Build 0)  -->
<!DOCTYPE svg PUBLIC "-//W3C//DTD SVG 1.1//EN" "http://www.w3.org/Graphics/SVG/1.1/DTD/svg11.dtd">
<svg version="1.1" id="Layer_1" xmlns="http://www.w3.org/2000/svg" xmlns:xlink="http://www.w3.org/1999/xlink" x="0px" y="0px"
	 width="64px" height="64px" viewBox="0 0 64 64" enable-background="new 0 0 64 64" xml:space="preserve">
<g>
	<g>
		<path fill="#231F20" d="M22.726,15.334c3.486,0,6.323-2.837,6.323-6.322c0-3.487-2.837-6.324-6.323-6.324
			c-3.487,0-6.324,2.837-6.324,6.324C16.402,12.498,19.239,15.334,22.726,15.334z"/>
	</g>
	<g>
		<path fill="#231F20" d="M28.492,36.91c0.075,0.017,0.146,0.039,0.219,0.057c-0.11,0.471-0.309,1.028-0.575,1.353l-0.234,0.287
			l0.194,0.313c0.111,0.181,0.205,0.372,0.278,0.572c2.895,7.745,8.243,12.802,13.593,17.111c0.875,0.705,1.174,1.615,0.841,2.56
			c-0.433,1.223-1.767,2.147-3.104,2.147c-0.687,0-1.327-0.234-1.905-0.696c-6.795-5.477-11.114-10.781-13.999-17.202l-0.283-0.637
			l-0.524,0.454c-1.608,1.378-2.369,2.709-2.331,4.067c0.073,2.393,1.247,4.484,2.38,6.505l0.155,0.276
			c0.514,0.922,0.524,1.896,0.027,2.745c-0.558,0.953-1.663,1.596-2.748,1.596c-0.947,0-1.748-0.502-2.258-1.409
			c-1.935-3.465-3.774-7.182-3.177-11.195c0.524-3.532,3.089-5.987,4.972-7.523l0.35-0.287l-0.313-0.516l-1.063-3.839
			c1.591,0.695,4.935,2.052,8.923,3.105C28.105,36.806,28.301,36.862,28.492,36.91z M6.465,6.211c0.996,0,1.766,0.578,2.055,1.543
			c1.811,6.059,5.483,9.261,10.62,9.261c0.271,0,0.545-0.009,0.864-0.033l0.163-0.049c1.062-0.542,2.415-0.711,3.442-0.428
			c0.327,0.09,0.643,0.214,0.968,0.379l0.14,0.041c0.206,0.027,0.399,0.079,0.593,0.158c2.761,1.133,5.608,2.167,8.36,3.168
			l0.066,0.022c1.711,0.623,3.479,1.264,5.209,1.922c1.27,0.483,1.647,1.714,1.463,2.72c-0.158,0.857-0.762,1.724-1.756,1.724
			c-0.248,0-0.512-0.054-0.787-0.158c-1.674-0.638-3.388-1.261-5.042-1.864l-0.175-0.065c-1.862-0.676-3.543-1.288-5.241-1.935
			l-0.628-0.238l-0.072,0.667c-0.264,2.377-0.004,4.787,0.761,7.172c-0.703-0.175-1.387-0.353-2.029-0.539
			c-4.6-1.374-7.658-2.917-7.822-3.002c-0.103-1.553-0.073-3.189,0.09-4.865l0.049-0.504l-0.501-0.062
			c-6.23-0.758-10.848-5.141-12.995-12.34C4.058,8.234,4.144,7.62,4.51,7.13C4.933,6.563,5.682,6.211,6.465,6.211z M37.192,36.972
			c-2.749,0-5.443-0.329-8.357-1.048c-0.133-0.031-0.268-0.065-0.4-0.099c-2.95-0.759-6.135-1.911-9.845-3.547l-0.737-4.292
			c1.304,0.61,3.843,1.689,7.231,2.669c0.965,0.289,1.995,0.574,3.082,0.836l0.956,0.228l-0.024-0.064
			c3.084,0.646,6.604,1.104,10.399,1.104c2.367,0,4.727-0.178,7.022-0.534c2.504-0.512,8.292-2.037,11.532-2.902l-2.106,1.468
			c-0.146,0.102-0.231,0.27-0.223,0.448c0.005,0.178,0.103,0.338,0.259,0.429c1.58,0.905,3.117,1.908,3.866,2.507
			c-3.705,0.468-6.888,0.961-9.737,1.401C45.056,36.357,41.064,36.972,37.192,36.972z"/>
	</g>
</g>
</svg>
