<?xml version="1.0" encoding="utf-8"?>
<!-- Generator: Adobe Illustrator 16.0.0, SVG Export Plug-In . SVG Version: 6.00 Build 0)  -->
<!DOCTYPE svg PUBLIC "-//W3C//DTD SVG 1.1//EN" "http://www.w3.org/Graphics/SVG/1.1/DTD/svg11.dtd">
<svg version="1.1" id="Layer_1" xmlns="http://www.w3.org/2000/svg" xmlns:xlink="http://www.w3.org/1999/xlink" x="0px" y="0px"
	 width="100px" height="100px" viewBox="0 0 100 100" enable-background="new 0 0 100 100" xml:space="preserve">
<g>
	<path d="M86.418,76.903l-2.47,3.678l-0.777-2.59h-1.942l0.783-2.349c-6.129-0.704-12.364-2.159-13.808-3.269
		c-0.09-0.124-0.181-0.285-0.271-0.469h-1.856l0.647-1.813l0.429-0.412c-0.273-0.999-0.538-2.196-0.784-3.537l-2.753-1.62
		l2.263-1.414c-0.365-2.578-0.649-5.422-0.792-8.206c-0.038-0.755-0.766-2.554-0.871-2.796l-3.202-7.398h-1.153l0.692-1.065
		l-0.846-1.955l-4.249-0.995l2.869-2.194l-3.006-6.944c3.474-2.381,6.208-5.9,7.288-7.409c0.235-0.327,0.403-0.69,0.531-1.066
		h-1.725l1.708-3.262c-0.103-0.594-0.246-1.323-0.448-2.177h-4.11c0,0,1.809-1.412,3.394-2.613
		c-1.079-3.464-2.953-7.793-6.171-11.542c-1.461-1.704-4.031-1.901-5.735-0.438c-1.705,1.463-1.901,4.031-0.438,5.735
		c3.512,4.093,4.904,9.369,5.397,11.903c-4.764,6.063-11.743,5.146-14.08,6.338c3.825-2.833,5.85-8.514,3.877-13.07
		c-0.745-1.721-1.901-3.135-3.298-4.189l-6.257,0.883l2.754-2.619c-2.231-0.624-4.682-0.519-6.973,0.473
		c-5.311,2.298-7.751,8.466-5.453,13.775c1.778,4.105,6.669,7.008,12.63,5.956c-4.996,1.782-6.359,4.766-9.174,6.502L26.5,34
		l0.053-1.95c-0.639-0.474-1.615-1.216-2.714-2.105h-3.865l1.769-1.769c-0.997-0.877-1.999-1.815-2.888-2.76
		c-1.537-1.636-4.111-1.716-5.749-0.178c-1.637,1.538-1.716,4.112-0.178,5.749c1.696,1.804,3.686,3.554,5.425,4.981l0.584-0.585
		v1.06c2.037,1.639,3.612,2.754,3.735,2.841c0.526,0.37,1.132,0.61,1.769,0.7c1.059,0.151,2.926,0.363,5.095,0.399l3.387-0.109
		c0.882-0.077,1.772-0.193,2.644-0.367l5.447,12.583l5.248,0.764l-4.013,2.09l2.286,5.28c0.345,0.795,0.799,1.489,1.325,2.102
		c-0.959,2.134-2.217,4.997-3.313,7.713l2.42,2.11l-3.132-0.301c-0.79,2.059-1.416,3.904-1.646,5.098
		c-0.341,1.766-0.975,5.079,8.85,13.184l1.886-1.145v2.655c1.949,1.523,4.228,3.195,6.918,5.044
		c0.832,0.571,1.779,0.845,2.717,0.845c1.53,0,3.034-0.729,3.966-2.085c1.503-2.188,0.949-5.18-1.239-6.683
		c-3.202-2.202-6.395-4.652-8.912-6.782h-0.002l-0.988,1.179v-0.647h-4.144l1.428-3.955c-0.294-0.313-0.548-0.601-0.744-0.852
		c0.814-2.5,3.004-7.697,5.136-12.394c0.469-0.073,0.935-0.183,1.398-0.312c0.874,5.736,2.428,11.494,5.206,14.027
		c4.458,4.066,16.361,5.533,21.271,5.976c0.147,0.013,0.292,0.02,0.437,0.02c2.46,0,4.557-1.878,4.782-4.376
		C88.303,79.403,87.604,77.879,86.418,76.903z"/>
</g>
</svg>
