<?xml version="1.0" encoding="utf-8"?>
<!-- Generator: Adobe Illustrator 16.0.0, SVG Export Plug-In . SVG Version: 6.00 Build 0)  -->
<!DOCTYPE svg PUBLIC "-//W3C//DTD SVG 1.1//EN" "http://www.w3.org/Graphics/SVG/1.1/DTD/svg11.dtd">
<svg version="1.1" id="Capa_1" xmlns="http://www.w3.org/2000/svg" xmlns:xlink="http://www.w3.org/1999/xlink" x="0px" y="0px"
	 width="45.555px" height="42.215px" viewBox="0 0 45.555 42.215" enable-background="new 0 0 45.555 42.215" xml:space="preserve">
<g>
	<path id="path3522" fill="#040606" d="M8.689,6.856c0-0.758,0.605-1.253,1.356-1.253h5.717c0.75,0,1.355,0.495,1.355,1.253
		c0,0.75-0.605,1.247-1.355,1.247h-5.717C9.295,8.104,8.689,7.606,8.689,6.856z M38.976,2.584c0.85-0.075,1.841,0.125,2.805,0.986
		c0.908,0.812,1.191,1.672,1.189,2.434c-0.007,1.381-1.681,1.567-2.715,0.652l-1.709-1.514C37.513,4.227,37.601,2.705,38.976,2.584z
		 M9.799,39.522c-0.761,0.002-1.619-0.284-2.432-1.191c-0.858-0.961-1.059-1.951-0.985-2.797c0.12-1.377,1.642-1.463,2.557-0.431
		l1.514,1.708C11.368,37.845,11.18,39.52,9.799,39.522z M20.864,11.513c1.381-0.006,1.708,0.78,0.733,1.758
		c0,0-15.229,15.313-16.169,16.324c-1.244,1.335-2.011,3.114-2.011,5.083c0,4.167,3.026,7.537,7.192,7.537
		c1.927,0,2.683-0.311,3.407-0.881c0.306-0.241,29.518-28.688,30.278-29.84c0.795-1.2,1.259-2.651,1.259-4.223
		C45.554,3.112,42.349,0,38.19,0c-0.976,0-1.906,0.173-2.761,0.492c-1.295,0.482-2.304,1.392-2.482,1.575
		c-0.18,0.183-7.587,7.804-7.587,7.804c-0.962,0.989-1.996,1.545-2.311,1.24c-0.313-0.305,0.213-1.354,1.176-2.346l3.825-3.94
		c0.963-0.99,0.623-1.798-0.758-1.805L9.847,2.938c0,0-6.064-0.112-9.841,4.65c-0.229,0.278,5.154,3.974,9.947,3.974
		C10.055,11.562,15.183,11.539,20.864,11.513"/>
	<path id="path3524" fill="#040606" d="M26.007,34.504c-1.38-0.004-3.314,0.76-4.32,1.705l-3.644,3.422
		c-1.006,0.945-0.704,1.717,0.678,1.722c4.885,0.019,10.27,0.04,10.354,0.04c3.342,0,7.089-3.2,6.931-3.398
		c-2.634-3.315-6.855-3.482-6.855-3.482L26.007,34.504"/>
</g>
</svg>
